<svg xmlns="http://www.w3.org/2000/svg" version="1.1" xmlns:xlink="http://www.w3.org/1999/xlink" width="48" height="48"><svg id="SvgjsSvg1001" xmlns="http://www.w3.org/2000/svg" version="1.1" viewBox="0 0 48 48">
  <!-- Generator: Adobe Illustrator 30.0.0, SVG Export Plug-In . SVG Version: 2.1.1 Build 123)  -->
  <defs>
    <style>
      .st0 {
        fill: #fcf6e4;
      }

      .st1, .st2 {
        fill: #ba2025;
        stroke: #ba2025;
        stroke-miterlimit: 10;
        stroke-width: .05px;
      }

      .st2 {
        font-family: NotoSansSC-Medium, 'Noto Sans SC';
        font-size: 38px;
        font-weight: 500;
      }
    </style>
  </defs>
  <rect class="st0" width="48" height="48"></rect>
  <g>
    <path class="st1" d="M18.28,26.03l-.46-3.27c-1.04.32-2.06.63-3.08.94v-6.64h3.5v-3.34h-3.5v-7.41h-3.5v7.41h-4.37v3.34h4.37v7.65c-1.9.54-3.54.99-4.9,1.35l.84,3.46c1.25-.38,2.6-.79,4.07-1.26v8.86c0,.25-.04.42-.13.51-.09.09-.26.13-.51.13-.2.03-.62.03-1.25.02-.63-.01-1.33-.03-2.09-.06.25.53.48,1.14.67,1.82.19.68.31,1.25.36,1.71,1.19,0,2.2-.04,3.02-.13.82-.09,1.49-.29,2-.59.53-.28.91-.69,1.12-1.24.21-.54.32-1.27.32-2.18v-9.97c1.18-.38,2.37-.76,3.53-1.13Z"></path>
    <path class="st1" d="M41.65,24.44h-5.13v-6.88h4.22v-3.42h-4.49c.15-.26.3-.52.46-.8.51-.91,1.02-1.87,1.54-2.87.52-1,1.02-1.98,1.5-2.95l-3.8-1.25c-.25.84-.58,1.76-.97,2.77-.39,1.01-.82,2-1.27,2.96-.37.78-.73,1.48-1.08,2.13h-6.62l2.84-1.25c-.2-.58-.49-1.25-.86-2-.37-.75-.77-1.51-1.22-2.28-.44-.77-.89-1.49-1.35-2.15l-3.08,1.25c.46.68.89,1.43,1.31,2.24s.8,1.6,1.14,2.36c.31.68.54,1.28.71,1.82h-5.25v3.42h4.33v6.88h-5.55v3.42h5.38c0,.09-.01.17-.02.27-.13,1.32-.39,2.64-.8,3.97s-1.04,2.6-1.9,3.82c-.86,1.22-2.05,2.29-3.57,3.23.3.2.61.46.91.76s.6.61.87.93c.28.32.51.61.68.89,1.62-1.14,2.93-2.41,3.91-3.82.99-1.41,1.74-2.88,2.26-4.43.52-1.54.87-3.08,1.04-4.62.04-.34.06-.67.09-1.01h5.04v13.53h3.57v-13.53h5.13v-3.42ZM28.08,24.44v-6.88h4.86v6.88h-4.86Z"></path>
  </g>
  <text class="st2" transform="translate(67.4 37.69)"><tspan x="0" y="0">拼</tspan></text>
</svg><style>@media (prefers-color-scheme: light) { :root { filter: none; } }
@media (prefers-color-scheme: dark) { :root { filter: none; } }
</style></svg>